<?xml version="1.0" standalone="no"?>
<!DOCTYPE svg PUBLIC "-//W3C//DTD SVG 20010904//EN"
 "http://www.w3.org/TR/2001/REC-SVG-20010904/DTD/svg10.dtd">
<svg version="1.0" xmlns="http://www.w3.org/2000/svg"
 width="604.000000pt" height="548.000000pt" viewBox="0 0 604.000000 548.000000"
 preserveAspectRatio="xMidYMid meet">

<g transform="translate(0.000000,548.000000) scale(0.100000,-0.100000)"
fill="#000000" stroke="none">
<path d="M1196 5428 c3 -29 5 -62 5 -73 -2 -55 0 -69 9 -80 6 -7 12 -30 14
-52 2 -22 9 -51 16 -63 16 -31 5 -131 -21 -179 -21 -39 -24 -61 -9 -61 6 0 10
-13 10 -29 0 -21 -13 -43 -45 -77 -25 -25 -45 -52 -45 -60 0 -7 -18 -25 -40
-41 -22 -15 -47 -44 -56 -63 -9 -19 -32 -60 -50 -91 -19 -31 -34 -70 -34 -87
0 -17 -7 -59 -16 -94 -22 -83 -21 -175 1 -221 9 -21 15 -49 12 -63 -3 -16 4
-42 20 -70 14 -25 23 -53 21 -62 -3 -10 -1 -47 3 -84 10 -86 53 -163 125 -224
29 -25 56 -54 59 -65 4 -10 11 -19 17 -19 16 0 126 -112 132 -134 5 -19 84
-76 106 -76 5 0 26 -16 47 -36 21 -19 55 -43 76 -52 20 -9 37 -22 37 -28 0 -7
12 -20 28 -29 39 -26 81 -68 82 -82 0 -7 4 -13 10 -13 5 0 19 -8 30 -17 36
-31 210 -56 210 -30 0 9 3 8 9 -2 6 -10 10 -10 16 -1 4 6 13 9 21 6 28 -11 13
12 -32 50 -25 22 -85 78 -134 126 -49 48 -101 90 -115 94 -14 3 -25 11 -25 17
0 6 -9 20 -19 31 -41 45 -61 95 -57 144 7 81 23 109 68 117 13 3 24 9 26 15 2
5 9 10 16 10 14 0 95 80 81 80 -6 0 5 10 24 22 32 21 34 21 65 4 17 -9 46 -39
65 -66 31 -45 33 -51 21 -82 -7 -18 -18 -64 -25 -103 -7 -38 -18 -88 -24 -110
-12 -46 -3 -57 38 -45 37 10 100 -11 138 -47 27 -25 38 -29 75 -26 25 2 48 10
55 19 10 13 21 15 55 10 23 -4 50 -14 59 -22 14 -12 22 -13 38 -4 27 14 16 38
-31 72 -18 12 -51 42 -73 65 -22 24 -46 43 -53 43 -6 0 -12 9 -12 19 0 11 -6
26 -14 33 -10 11 -11 19 -4 33 8 13 7 20 -6 27 -12 7 -14 14 -6 27 5 10 7 21
3 24 -17 17 95 117 131 117 6 0 16 4 21 9 6 6 28 13 50 16 37 6 41 4 57 -24 9
-17 25 -31 34 -31 9 0 31 -9 48 -19 17 -10 50 -22 73 -26 23 -4 53 -15 67 -26
13 -10 28 -19 33 -19 5 0 27 -15 48 -34 26 -24 43 -32 53 -27 9 5 30 1 53 -11
26 -12 63 -19 116 -20 92 -1 160 -18 202 -47 16 -12 49 -30 73 -41 l43 -20
-42 0 c-31 0 -43 -4 -43 -14 0 -8 -8 -22 -17 -31 -16 -16 -15 -18 8 -36 13
-10 29 -19 34 -19 18 -1 65 -49 65 -66 0 -15 -2 -15 -25 0 -33 22 -71 20 -95
-4 -11 -11 -27 -20 -36 -20 -16 0 -16 -11 2 -54 7 -17 4 -18 -24 -13 -42 8
-42 -11 -1 -47 23 -21 38 -27 61 -24 18 3 47 -3 70 -14 31 -15 58 -19 128 -17
89 2 89 2 95 30 6 27 7 27 63 23 31 -3 82 -11 112 -19 68 -17 105 -20 148 -10
29 7 33 11 29 33 -3 17 0 26 12 29 9 2 21 14 26 26 6 12 21 24 35 27 36 7 80
40 80 59 0 10 11 28 26 41 16 16 24 34 23 50 -1 14 7 45 19 70 41 90 52 118
52 139 0 12 4 21 9 21 5 0 12 13 16 30 4 16 11 32 16 35 5 4 9 15 9 26 0 31
24 99 35 99 5 0 16 -4 24 -9 8 -5 31 -3 58 6 40 14 46 14 62 -1 39 -35 74 -8
52 41 -10 21 -8 31 9 60 11 19 20 36 20 38 0 9 -33 13 -54 6 -20 -8 -22 -7
-19 13 3 13 -2 29 -10 37 -8 9 -18 29 -21 46 -4 17 -16 40 -26 51 -11 12 -20
32 -20 45 0 12 -4 27 -9 32 -8 9 -16 95 -12 133 0 8 19 29 40 49 38 34 81 112
46 83 -13 -11 -15 -4 -13 54 1 37 -3 71 -9 77 -8 8 -8 20 -1 40 6 16 8 39 4
51 -3 13 1 29 10 39 14 15 13 21 -5 60 -10 24 -21 66 -24 94 -4 42 -1 54 19
78 28 33 35 78 9 57 -10 -8 -19 -9 -25 -4 -13 14 -15 125 -3 164 10 30 34 158
58 303 l6 37 -1580 0 -1580 0 5 -52z m2568 -410 c-8 -26 -24 -39 -38 -31 -5 3
-2 11 7 18 10 7 17 17 17 24 0 6 5 11 11 11 6 0 8 -9 3 -22z m-1204 -243 c0
-24 71 -94 102 -100 19 -5 37 -1 53 9 13 9 30 16 36 16 7 0 21 7 31 17 12 10
18 12 18 4 0 -7 4 -10 8 -7 5 3 16 -8 26 -25 17 -29 17 -30 -6 -49 -13 -10
-36 -26 -53 -36 -42 -23 -100 -97 -137 -174 -18 -36 -44 -75 -59 -87 -15 -13
-30 -35 -34 -50 -9 -36 -37 -62 -64 -60 -24 1 -44 44 -43 90 1 56 22 190 39
252 9 33 16 86 16 117 -1 32 3 55 8 52 5 -3 9 0 9 6 0 15 23 39 38 40 6 0 12
-7 12 -15z m-708 -45 c16 0 40 -14 66 -39 33 -32 41 -49 50 -97 10 -61 3 -137
-16 -156 -18 -18 -32 2 -32 47 0 24 -4 45 -8 47 -5 2 -27 41 -50 87 -23 46
-51 92 -62 101 -11 10 -20 25 -20 35 0 17 2 16 23 -3 13 -12 35 -22 49 -22z
m-57 -300 c21 -23 13 -50 -14 -50 -22 0 -39 39 -26 59 9 16 20 13 40 -9z
m1194 -121 c27 -25 23 -43 -12 -47 -32 -4 -56 31 -36 54 15 19 21 18 48 -7z
m323 -35 c16 -55 -1 -105 -51 -155 -73 -73 -157 -103 -318 -115 -112 -9 -205
9 -249 48 -40 36 -42 45 -10 60 20 9 31 7 59 -9 18 -11 57 -28 87 -38 69 -23
203 -15 267 16 54 26 128 110 150 169 26 68 50 77 65 24z m968 -355 c0 -6 -4
-7 -10 -4 -5 3 -10 11 -10 16 0 6 5 7 10 4 6 -3 10 -11 10 -16z"/>
<path d="M4458 5013 c-11 -3 -18 -14 -18 -27 0 -40 -21 -84 -42 -89 -12 -4
-17 -10 -13 -17 6 -9 9 -9 15 0 5 8 12 7 24 -5 22 -22 88 -32 85 -13 -5 21 11
56 27 62 8 3 12 2 9 -4 -3 -6 -2 -10 4 -10 5 0 13 5 16 10 10 17 25 11 25 -10
0 -24 22 -26 55 -4 14 9 31 14 39 11 15 -6 36 11 36 29 0 17 -37 22 -79 11
-22 -6 -37 -5 -44 2 -14 14 -40 14 -32 1 3 -5 1 -10 -4 -10 -6 0 -11 5 -11 10
0 6 -9 10 -20 10 -13 0 -20 7 -20 19 0 15 -24 36 -33 30 -1 -1 -10 -3 -19 -6z"/>
<path d="M4755 4957 c-2 -7 -6 -24 -9 -39 -4 -19 -13 -28 -26 -28 -11 0 -20
-7 -20 -15 0 -8 6 -15 14 -15 8 0 16 -16 20 -40 7 -47 17 -49 58 -15 34 29 45
27 29 -3 -15 -29 -14 -42 4 -36 28 11 6 -20 -31 -44 -40 -26 -55 -22 -35 9 14
24 8 37 -11 21 -19 -15 -49 -17 -81 -4 -25 11 -28 16 -22 42 5 21 2 35 -10 46
-15 15 -18 15 -43 -9 -18 -17 -34 -24 -47 -21 -27 7 -68 -36 -59 -60 5 -13 16
-17 41 -14 28 2 36 -2 47 -24 8 -15 12 -29 9 -32 -3 -2 7 -3 21 -2 26 3 26 3
11 -20 -19 -29 -5 -32 20 -4 19 21 45 27 45 10 0 -5 9 -10 20 -10 15 0 20 -7
20 -25 0 -25 23 -35 35 -15 13 21 61 10 83 -19 11 -16 35 -39 51 -51 l31 -21
20 33 c14 23 18 42 14 65 -8 40 19 57 41 27 13 -18 14 -18 32 -1 21 18 35 14
26 -9 -14 -37 74 -21 101 18 8 11 12 28 9 39 -3 11 0 19 6 19 7 0 11 -7 9 -16
-2 -10 2 -19 8 -21 14 -5 13 27 0 42 -5 6 -24 10 -42 9 -33 -2 -59 16 -36 24
7 2 12 10 12 17 0 7 7 15 15 19 8 3 15 11 15 17 0 8 -4 9 -13 0 -23 -18 -27
-1 -5 21 26 26 9 39 -41 33 -41 -5 -49 -12 -31 -28 7 -6 10 -7 7 -2 -3 6 3 11
14 11 15 0 16 -3 7 -11 -21 -19 -68 -36 -68 -25 0 6 8 10 18 10 13 0 14 2 4 9
-8 4 -12 19 -10 32 3 21 0 24 -29 21 -20 -1 -33 3 -33 10 0 6 -7 5 -18 -5 -20
-18 -47 -23 -37 -8 3 5 -1 16 -9 24 -8 8 -13 17 -10 20 7 6 -63 38 -104 48
-22 5 -34 3 -37 -4z m129 -111 c-3 -14 -10 -23 -15 -20 -5 3 -6 11 -2 17 4 7
8 15 9 20 1 4 2 10 3 14 0 3 3 4 6 1 4 -3 3 -17 -1 -32z"/>
<path d="M4531 4882 c-13 -25 4 -54 19 -32 12 19 13 37 1 45 -6 3 -14 -3 -20
-13z"/>
<path d="M5245 4870 c-3 -5 -2 -10 4 -10 5 0 13 5 16 10 3 6 2 10 -4 10 -5 0
-13 -4 -16 -10z"/>
<path d="M5235 4804 c-21 -22 -14 -40 15 -36 21 4 22 2 11 -12 -10 -12 -17
-14 -27 -5 -17 14 -16 14 -19 -34 -1 -33 1 -37 19 -35 15 2 20 -2 17 -12 -2
-8 -6 -32 -9 -52 -5 -44 -15 -48 -38 -13 -15 23 -17 24 -44 10 -16 -8 -34 -23
-39 -32 -9 -16 -12 -16 -21 -3 -8 11 -9 2 -4 -34 6 -42 4 -48 -9 -43 -16 6
-47 -21 -47 -42 0 -7 -6 -11 -12 -9 -13 5 -48 -33 -48 -51 0 -17 13 -13 41 13
43 40 68 50 94 36 22 -12 22 -14 7 -39 -10 -17 -13 -37 -8 -54 6 -24 10 -27
41 -23 19 2 39 8 45 11 7 4 18 -3 27 -15 8 -12 21 -19 29 -16 19 7 18 -9 -2
-39 -21 -33 -9 -50 18 -25 29 26 38 25 38 -5 0 -14 5 -25 10 -25 6 0 10 4 10
9 0 13 50 71 61 71 4 0 6 -7 3 -15 -5 -11 -2 -13 10 -9 9 3 23 1 32 -6 13 -12
11 -17 -15 -40 -21 -19 -28 -34 -24 -48 3 -14 -4 -30 -21 -49 -21 -22 -26 -24
-26 -10 0 27 -46 22 -66 -8 -15 -24 -15 -27 0 -44 18 -20 21 -41 6 -41 -6 0
-10 -7 -8 -16 2 -11 -8 -21 -29 -28 -18 -6 -38 -18 -45 -28 -7 -9 -22 -18 -33
-20 -11 -2 -20 -10 -20 -18 0 -22 46 -25 61 -5 10 14 16 14 34 5 12 -6 33 -14
47 -16 14 -3 37 -11 52 -18 14 -7 33 -11 41 -8 8 2 3 -5 -12 -17 -21 -17 -28
-31 -28 -58 l0 -36 40 7 c38 6 39 6 46 -29 3 -19 11 -38 17 -42 6 -3 7 -1 3 5
-4 7 -1 12 9 12 12 0 15 -5 11 -16 -3 -9 -6 -18 -6 -20 0 -2 -7 -4 -15 -4 -8
0 -15 6 -15 12 0 24 -30 -30 -39 -72 -8 -35 -6 -48 9 -75 10 -19 16 -43 13
-58 -6 -30 12 -36 48 -17 32 18 37 -17 6 -43 -19 -16 -27 -33 -29 -62 -3 -40
-3 -40 37 -45 22 -3 48 -2 58 3 13 6 24 1 43 -22 14 -17 39 -41 56 -53 l31
-21 18 22 c11 13 19 31 19 41 0 10 6 20 13 23 9 3 7 10 -7 25 -17 20 -22 42
-30 137 -2 17 -8 41 -13 55 -6 14 -9 28 -7 31 2 4 -5 14 -16 24 -14 13 -37 19
-75 19 -39 1 -54 5 -51 13 3 7 -3 22 -13 35 -15 17 -16 27 -8 45 12 27 20 29
37 8 7 -9 15 -13 18 -10 3 3 11 -8 18 -25 12 -28 34 -41 34 -20 0 5 7 6 17 3
11 -4 14 -3 9 5 -4 7 -3 12 3 12 5 0 15 2 23 5 8 3 23 -11 38 -34 31 -51 64
-70 90 -53 25 15 33 15 23 0 -15 -25 -12 -39 8 -33 14 5 17 2 13 -8 -3 -9 4
-22 18 -32 23 -17 23 -17 1 -12 -22 5 -42 -20 -26 -32 20 -15 31 -48 21 -66
-8 -13 -7 -16 1 -11 6 4 11 2 11 -3 0 -6 5 -11 11 -11 6 0 9 7 6 15 -4 8 -2
17 3 20 6 4 10 -3 10 -14 0 -15 7 -21 23 -22 20 -1 20 -2 -5 -12 -16 -6 -28
-14 -28 -19 0 -4 8 -4 17 -1 13 5 15 2 10 -12 -4 -9 -2 -24 4 -31 9 -11 7 -14
-10 -14 -11 0 -21 -6 -21 -14 0 -7 -10 -16 -21 -19 -16 -4 -20 -11 -14 -24 18
-47 17 -80 -3 -95 -18 -12 -20 -22 -17 -82 2 -48 0 -66 -8 -63 -7 2 -17 -2
-24 -9 -15 -15 -17 -80 -3 -89 6 -3 10 -17 10 -30 0 -13 5 -27 10 -30 6 -3 10
-15 10 -25 0 -10 9 -21 20 -25 16 -5 18 -9 7 -26 -6 -10 -18 -19 -26 -19 -26
0 -5 -10 29 -14 35 -4 80 11 80 26 0 5 10 0 22 -12 12 -11 25 -20 30 -20 4 0
8 -5 8 -11 0 -6 6 -17 14 -25 11 -11 16 -11 19 -1 4 7 6 6 6 -4 1 -9 -8 -19
-19 -22 -29 -7 -60 -85 -47 -114 11 -25 22 -29 32 -13 3 6 13 10 21 10 10 0
13 -7 8 -25 -4 -15 -2 -25 5 -25 15 0 14 57 -1 63 -10 3 -10 7 -2 18 17 21 18
130 2 140 -10 7 -10 9 0 9 10 0 12 199 12 981 0 926 -1 981 -18 974 -23 -10
-105 -6 -116 6 -6 5 -30 9 -53 9 -24 0 -55 7 -68 16 -13 8 -32 14 -42 13 -28
-4 -141 11 -204 27 -31 8 -69 14 -83 14 -14 0 -26 5 -26 10 0 6 -6 10 -13 10
-7 0 -30 9 -52 20 -47 24 -108 26 -130 4z m205 -424 c0 -5 -5 -10 -11 -10 -5
0 -7 5 -4 10 3 6 8 10 11 10 2 0 4 -4 4 -10z m-120 -32 c0 -4 -2 -8 -4 -8 -2
0 -12 -3 -20 -6 -11 -4 -15 -2 -11 8 6 15 35 21 35 6z m214 -223 c-4 -8 -8
-15 -10 -15 -2 0 -4 7 -4 15 0 8 4 15 10 15 5 0 7 -7 4 -15z m-30 -60 c3 -8
-3 -19 -13 -25 -20 -10 -23 2 -8 28 10 16 14 15 21 -3z m-74 1 c0 -3 -4 -8
-10 -11 -5 -3 -10 -1 -10 4 0 6 5 11 10 11 6 0 10 -2 10 -4z m10 -86 c0 -5 -4
-10 -10 -10 -5 0 -10 5 -10 10 0 6 5 10 10 10 6 0 10 -4 10 -10z m130 1 c0 -3
-16 -21 -35 -40 -27 -26 -39 -31 -47 -23 -8 8 -8 15 2 27 10 12 10 15 -1 15
-10 1 -8 5 4 15 18 13 77 18 77 6z m-180 -21 c0 -5 -4 -10 -10 -10 -5 0 -10 5
-10 10 0 6 5 10 10 10 6 0 10 -4 10 -10z m67 -24 c-3 -8 -1 -16 5 -18 5 -2 2
-10 -8 -18 -16 -14 -17 -13 -11 3 4 9 2 17 -5 17 -7 0 -6 5 2 15 16 19 24 19
17 1z m-75 -38 c-7 -7 -12 -8 -12 -2 0 14 12 26 19 19 2 -3 -1 -11 -7 -17z
m182 16 c9 -3 13 -10 10 -15 -6 -10 14 -50 30 -61 8 -6 6 -11 -4 -18 -22 -14
-30 -12 -30 7 0 12 -3 14 -11 6 -12 -12 -49 -6 -49 8 0 5 5 9 10 9 6 0 8 11 4
26 -4 17 -2 29 7 35 17 11 14 10 33 3z m106 -34 c0 -15 -33 -50 -42 -44 -4 3
-1 16 8 30 17 24 34 32 34 14z m9 -57 c0 -5 -13 -18 -30 -31 -22 -18 -29 -20
-29 -8 0 8 10 22 22 30 24 17 38 20 37 9z m-164 -203 c-3 -5 -10 -10 -16 -10
-5 0 -9 5 -9 10 0 6 7 10 16 10 8 0 12 -4 9 -10z m85 -216 c0 -7 -6 -14 -14
-17 -12 -5 -14 3 -7 48 2 13 21 -16 21 -31z m305 -424 c-3 -5 -14 -10 -23 -10
-15 0 -15 2 -2 10 20 13 33 13 25 0z m74 -79 c8 -5 9 -11 3 -15 -5 -3 -15 1
-22 9 -14 16 -3 20 19 6z m-49 -61 c0 -11 5 -20 11 -20 5 0 7 5 4 10 -3 6 -1
10 4 10 6 0 11 -7 11 -15 0 -22 -27 -19 -40 4 -13 25 -13 31 0 31 6 0 10 -9
10 -20z"/>
<path d="M5171 4784 c0 -11 3 -14 6 -6 3 7 2 16 -1 19 -3 4 -6 -2 -5 -13z"/>
<path d="M5140 4759 c0 -5 5 -7 10 -4 6 3 10 8 10 11 0 2 -4 4 -10 4 -5 0 -10
-5 -10 -11z"/>
<path d="M4320 4749 c0 -5 5 -7 10 -4 6 3 10 8 10 11 0 2 -4 4 -10 4 -5 0 -10
-5 -10 -11z"/>
<path d="M4334 4665 c-8 -31 0 -42 20 -26 14 12 11 51 -5 51 -5 0 -11 -11 -15
-25z"/>
<path d="M4407 4643 c-4 -3 -7 -12 -7 -19 0 -16 52 -3 58 14 4 13 -39 17 -51
5z"/>
<path d="M4540 4600 c0 -5 5 -10 10 -10 6 0 10 5 10 10 0 6 -4 10 -10 10 -5 0
-10 -4 -10 -10z"/>
<path d="M4540 4530 c-9 -16 -8 -22 6 -27 16 -6 36 14 31 31 -6 19 -26 17 -37
-4z"/>
<path d="M4652 4538 c-6 -6 -12 -20 -12 -31 0 -10 -5 -28 -11 -39 -9 -17 -8
-24 5 -33 19 -14 22 -36 4 -30 -30 10 -92 -75 -66 -91 6 -4 33 -8 60 -10 42
-2 56 -8 83 -36 48 -49 62 -58 80 -52 25 10 29 50 7 86 -14 25 -18 47 -15 86
2 28 -1 52 -6 52 -9 0 -28 42 -33 74 -2 11 -10 20 -18 22 -8 1 -26 5 -40 8
-15 4 -30 2 -38 -6z m51 -104 c27 -10 20 -88 -8 -92 -11 -1 -25 6 -32 17 -15
23 -6 94 11 86 6 -3 19 -8 29 -11z"/>
<path d="M4356 4393 c-5 -11 2 -26 19 -42 l25 -26 0 28 c0 23 4 28 23 27 38
-4 47 0 47 16 0 11 -5 14 -16 10 -39 -15 -65 -17 -78 -7 -11 9 -15 8 -20 -6z"/>
<path d="M5031 4401 c-14 -9 -11 -57 4 -54 13 2 25 38 16 51 -4 6 -12 7 -20 3z"/>
<path d="M251 4298 c-10 -30 -9 -31 4 -14 8 11 15 26 15 33 0 22 -8 14 -19
-19z"/>
<path d="M4498 4158 c-27 -29 -35 -48 -22 -48 7 0 40 38 55 63 16 27 -3 19
-33 -15z"/>
<path d="M5015 4150 c3 -5 13 -10 21 -10 8 0 14 5 14 10 0 6 -9 10 -21 10 -11
0 -17 -4 -14 -10z"/>
<path d="M5176 4037 c-14 -15 -26 -35 -26 -46 0 -14 -5 -19 -14 -15 -8 3 -12
12 -9 20 7 19 -11 18 -27 -1 -15 -19 1 -43 28 -40 69 8 102 31 72 50 -7 4 -6
13 1 26 16 31 3 34 -25 6z"/>
<path d="M4887 3935 c-4 -8 -2 -17 3 -20 6 -4 10 -4 10 -1 0 2 3 11 6 20 3 9
2 16 -4 16 -5 0 -12 -7 -15 -15z"/>
<path d="M5060 3925 c0 -8 2 -15 4 -15 2 0 12 -3 21 -7 15 -5 16 -3 6 15 -13
25 -31 29 -31 7z"/>
<path d="M4912 3888 c-18 -18 -14 -45 8 -51 12 -3 20 -14 20 -26 0 -12 5 -21
10 -21 6 0 10 -8 10 -19 0 -13 7 -18 22 -17 30 1 36 32 8 39 -19 5 -21 10 -15
36 9 43 -2 71 -29 71 -12 0 -27 -5 -34 -12z"/>
<path d="M5170 3833 c-10 -12 -24 -23 -31 -23 -10 0 -10 -3 -1 -12 19 -19 14
-35 -13 -42 -14 -4 -25 -10 -25 -15 0 -8 29 -24 63 -35 10 -3 15 -11 11 -17
-3 -6 0 -15 7 -20 19 -12 59 -11 59 1 0 18 17 11 23 -9 6 -23 48 -18 72 9 19
21 12 42 -9 34 -8 -3 -17 -1 -21 5 -3 6 -17 11 -30 11 -12 0 -26 7 -29 16 -4
11 -13 13 -27 9 -20 -7 -21 -5 -15 21 4 16 16 38 27 50 25 27 24 31 -12 36
-23 4 -34 -1 -49 -19z"/>
<path d="M4554 3804 c-12 -17 -20 -22 -27 -15 -17 17 -29 13 -18 -7 15 -28 46
-24 64 8 20 32 21 40 7 40 -5 0 -17 -11 -26 -26z"/>
<path d="M5075 3821 c-3 -5 -1 -12 5 -16 12 -7 30 2 30 16 0 12 -27 12 -35 0z"/>
<path d="M4797 3813 c-4 -3 -7 -13 -7 -22 0 -12 3 -12 12 -3 17 17 28 15 28
-5 0 -13 3 -14 12 -5 8 8 8 15 -2 27 -13 16 -32 20 -43 8z"/>
<path d="M5037 3783 c-4 -3 -7 -16 -7 -27 1 -21 1 -21 15 -2 8 11 15 23 15 28
0 10 -14 11 -23 1z"/>
<path d="M4690 3742 c0 -24 -19 -42 -46 -42 -12 0 -24 -7 -27 -14 -4 -10 -1
-13 7 -10 28 11 45 -46 22 -75 -9 -11 -8 -13 4 -9 8 2 16 13 18 24 5 31 24 64
38 64 21 0 33 31 21 57 -12 27 -37 31 -37 5z"/>
<path d="M4370 3715 c-8 -9 -8 -15 -2 -15 12 0 26 19 19 26 -2 2 -10 -2 -17
-11z"/>
<path d="M4748 3683 c-19 -22 -38 -58 -38 -71 0 -11 60 -35 68 -27 3 2 -1 11
-7 19 -10 12 -10 20 3 38 32 45 9 81 -26 41z"/>
<path d="M5065 3610 c-22 -42 -20 -74 2 -38 25 40 44 43 70 13 28 -32 29 -71
3 -110 -13 -19 -20 -47 -20 -77 0 -35 -6 -54 -26 -77 -14 -17 -34 -31 -43 -31
-25 0 -54 -36 -48 -59 3 -13 -1 -21 -13 -24 -22 -6 -37 38 -20 58 5 6 7 26 4
44 -5 22 -3 31 6 31 20 0 3 13 -21 17 -29 4 -89 -34 -89 -57 0 -26 26 -43 55
-36 32 8 32 -4 0 -32 -30 -27 -59 -19 -51 13 3 13 0 27 -7 33 -17 14 -54 5
-61 -15 -6 -13 -3 -13 19 1 23 15 25 15 25 -1 0 -16 -92 -113 -108 -113 -5 0
-18 9 -30 21 -15 13 -29 18 -42 14 -12 -4 -20 -2 -20 5 0 6 -7 10 -16 8 -11
-2 -22 14 -38 55 -17 46 -24 55 -34 45 -14 -14 -16 -48 -2 -48 5 0 7 -7 4 -15
-4 -8 -13 -15 -21 -15 -8 0 -21 7 -29 15 -24 23 -53 18 -66 -11 -10 -22 -10
-28 6 -40 13 -9 24 -10 37 -4 26 14 39 12 39 -6 0 -8 4 -13 9 -10 5 3 11 -3
14 -14 3 -12 14 -20 26 -20 24 0 25 -4 11 -31 -14 -25 -3 -24 19 2 14 18 22
19 51 12 30 -8 35 -14 38 -41 4 -36 8 -38 31 -18 9 7 28 16 43 20 24 5 31 1
50 -27 12 -19 36 -43 54 -55 31 -20 34 -20 49 -5 17 16 17 58 1 94 -5 12 2 23
24 39 29 21 32 21 44 5 10 -14 16 -15 34 -6 12 6 22 16 22 22 0 6 5 7 10 4 6
-3 10 -18 10 -33 1 -23 2 -25 11 -9 6 9 15 15 20 11 19 -11 59 6 59 25 0 18
-36 55 -62 63 -7 3 -5 14 7 32 14 22 16 32 8 45 -12 19 2 37 79 102 33 27 39
29 44 14 11 -29 52 -67 64 -60 6 4 10 16 8 28 -2 18 3 23 30 25 29 3 32 6 32
38 0 39 -2 40 -34 18 -26 -16 -99 -15 -104 1 -1 6 5 18 13 28 13 15 13 17 0
17 -8 0 -15 5 -15 10 0 6 -5 9 -11 8 -25 -6 -18 22 12 53 28 29 40 34 85 35
59 2 84 12 63 25 -7 4 -21 3 -31 -2 -9 -5 -34 -7 -55 -3 -32 5 -42 2 -62 -20
-14 -14 -28 -26 -31 -26 -4 0 -25 16 -46 35 -46 43 -69 44 -89 5z m81 -216
c-4 -9 -9 -15 -11 -12 -3 3 -3 13 1 22 4 9 9 15 11 12 3 -3 3 -13 -1 -22z
m-340 -251 c-10 -10 -19 5 -10 18 6 11 8 11 12 0 2 -7 1 -15 -2 -18z"/>
<path d="M4493 3558 c-26 -34 -22 -46 15 -44 20 2 45 -1 55 -6 9 -5 23 -6 29
-2 15 9 -19 35 -37 28 -18 -7 -30 16 -14 27 10 6 7 9 -12 9 -15 0 -31 -6 -36
-12z"/>
<path d="M4395 3531 c-7 -23 2 -48 21 -55 16 -6 19 -36 4 -36 -19 0 -31 -39
-19 -61 6 -12 14 -18 18 -13 3 5 13 9 21 9 8 0 16 11 18 25 3 24 3 25 -12 5
-15 -20 -15 -20 -16 3 0 12 7 34 16 48 20 29 8 66 -25 83 -16 9 -21 7 -26 -8z"/>
<path d="M710 3529 c-8 -4 -23 -10 -32 -13 -25 -8 -138 -263 -138 -313 0 -12
-4 -25 -10 -28 -12 -7 -64 -185 -55 -185 3 0 50 80 111 189 10 19 26 42 35 51
9 10 31 60 48 111 28 83 59 141 75 139 4 0 6 2 6 5 0 3 -3 4 -7 3 -4 -2 -10 9
-13 23 -4 20 -9 24 -20 18z"/>
<path d="M4647 3533 c-15 -4 -18 -11 -13 -39 6 -31 4 -34 -34 -54 -39 -20 -51
-42 -30 -55 6 -3 21 2 35 13 14 11 44 23 67 26 66 10 75 19 58 53 -16 32 -45
64 -57 62 -4 -1 -16 -3 -26 -6z"/>
<path d="M5282 3508 c2 -13 8 -23 13 -23 6 0 11 10 13 23 2 15 -2 22 -13 22
-11 0 -15 -7 -13 -22z"/>
<path d="M607 3513 c-4 -3 -7 -20 -7 -37 1 -33 11 -24 24 22 7 21 -3 30 -17
15z"/>
<path d="M2867 3480 c-3 -11 -1 -20 4 -20 5 0 9 9 9 20 0 11 -2 20 -4 20 -2 0
-6 -9 -9 -20z"/>
<path d="M4960 3492 c0 -5 7 -15 15 -22 8 -7 15 -8 15 -2 0 5 -7 15 -15 22 -8
7 -15 8 -15 2z"/>
<path d="M780 3469 c0 -3 7 -19 15 -36 14 -27 13 -33 -5 -69 -13 -28 -19 -33
-20 -19 -1 20 -1 20 -15 1 -15 -19 -21 -46 -9 -33 4 3 13 -1 22 -9 11 -11 12
-18 3 -27 -6 -6 -11 -26 -11 -44 0 -21 -8 -40 -24 -55 -13 -13 -28 -38 -35
-57 -10 -32 -10 -33 14 -27 20 5 23 3 18 -11 -5 -12 -2 -15 10 -10 21 8 22 -9
2 -56 -16 -39 -20 -107 -7 -107 4 0 12 4 18 10 6 6 8 -4 6 -30 -5 -46 -9 -50
-56 -52 -23 -1 -36 -7 -39 -17 -2 -10 -7 -6 -12 13 -5 17 -4 31 2 35 16 10 25
49 13 56 -6 4 -10 -5 -11 -22 0 -15 -3 -22 -6 -16 -3 8 -24 -11 -51 -45 -25
-31 -52 -61 -59 -65 -7 -4 -13 -14 -13 -22 0 -20 -17 -27 -24 -10 -3 9 6 28
24 47 31 32 40 61 16 52 -8 -3 -16 -14 -19 -25 -3 -10 -10 -19 -16 -19 -20 0
-33 44 -32 107 1 35 -1 63 -4 63 -4 0 -15 -19 -25 -42 -10 -24 -29 -49 -40
-56 -25 -15 -38 -7 -100 61 -27 30 -46 41 -83 48 -30 5 -56 5 -66 -1 -19 -9
-51 -96 -51 -136 0 -29 36 -55 67 -48 32 8 30 -15 -5 -48 -16 -14 -34 -45 -42
-67 -7 -23 -17 -41 -21 -41 -4 0 -24 -18 -45 -40 -21 -22 -44 -40 -51 -40 -10
0 -13 -24 -13 -93 0 -89 1 -95 30 -126 28 -32 56 -72 94 -135 15 -23 23 -27
46 -22 19 3 30 1 34 -9 3 -8 15 -15 26 -15 11 0 30 -10 42 -22 11 -11 34 -22
51 -24 16 -1 33 -6 38 -11 14 -14 -5 -66 -26 -69 -20 -3 -138 11 -257 31 l-78
12 0 -1038 0 -1039 2280 0 c1998 0 2280 2 2280 15 0 8 10 20 22 26 17 9 24 9
33 -5 7 -9 17 -16 24 -16 6 0 11 -4 11 -10 0 -7 238 -10 695 -10 l695 0 0
1168 c-1 1040 -2 1164 -16 1139 -17 -32 -23 -34 -21 -8 0 11 5 17 11 14 5 -4
7 1 3 10 -4 11 -1 17 8 17 11 0 15 12 15 43 0 35 -4 46 -23 56 -12 6 -29 24
-38 40 -13 21 -27 30 -59 35 -24 4 -47 3 -51 -1 -5 -5 5 -26 22 -47 l32 -37
-22 -15 c-11 -8 -21 -26 -21 -38 0 -28 -24 -51 -41 -40 -7 4 -9 3 -6 -3 9 -14
-16 -24 -32 -14 -15 10 -3 41 13 35 9 -3 11 4 8 26 -2 16 -9 30 -14 30 -6 0
-7 7 -4 16 3 9 2 12 -5 9 -6 -4 -13 2 -16 13 -6 24 -53 44 -75 31 -20 -11 -73
43 -65 65 5 13 12 14 32 6 15 -6 30 -10 35 -10 12 0 18 57 7 75 -6 11 -5 21 2
28 6 6 11 24 11 39 0 23 -4 28 -25 28 -14 0 -25 4 -25 9 0 18 -52 71 -70 71
-22 0 -32 -23 -24 -56 5 -20 2 -24 -15 -24 -13 0 -26 -11 -36 -29 -8 -17 -25
-31 -37 -33 -17 -2 -23 -10 -23 -29 -1 -29 19 -29 42 0 9 12 12 12 13 3 0 -28
-21 -50 -55 -56 -23 -5 -41 -16 -52 -34 -9 -15 -18 -29 -20 -31 -2 -2 -12 4
-24 14 -42 38 -81 -34 -42 -77 16 -18 16 -21 1 -32 -9 -7 -18 -25 -20 -41 -3
-27 -7 -30 -45 -33 -33 -2 -43 1 -43 13 0 8 -4 15 -10 15 -6 0 -5 10 2 25 6
14 8 28 5 32 -13 12 -45 -29 -49 -63 -4 -33 -3 -35 24 -29 23 6 30 3 37 -17 8
-21 5 -24 -23 -28 -41 -7 -50 -40 -10 -40 15 0 35 7 45 16 15 13 25 14 73 4
31 -6 56 -16 56 -21 0 -5 12 2 27 16 15 14 31 25 35 25 12 0 10 -14 -4 -28
-20 -20 4 -13 26 7 21 20 21 20 24 -16 1 -26 -1 -34 -11 -30 -22 8 -77 -23
-83 -47 -3 -12 0 -34 5 -49 10 -27 11 -27 40 -12 17 8 32 15 34 15 2 0 12 -18
22 -40 10 -22 24 -40 32 -40 16 0 16 -20 0 -41 -13 -17 -18 -19 -42 -19 -9 0
-18 -12 -21 -29 -6 -31 -20 -36 -113 -47 -52 -7 -82 -24 -101 -59 -15 -28 -36
-34 -26 -8 4 10 4 14 0 10 -4 -4 -14 2 -21 13 -8 11 -19 18 -24 15 -5 -4 -9 1
-9 9 0 8 -9 20 -20 26 -39 21 -81 -33 -79 -99 l1 -26 11 26 c16 36 37 59 52
59 36 0 74 -127 44 -145 -19 -12 -31 -59 -31 -118 1 -62 3 -60 -113 -164 -39
-35 -55 -28 -29 12 12 18 13 25 4 23 -24 -6 -21 21 4 43 19 17 22 24 13 34 -7
7 -18 10 -26 5 -8 -4 -21 -5 -30 -3 -9 2 -27 -7 -40 -21 -14 -14 -30 -26 -38
-26 -7 0 -15 -11 -19 -24 -7 -30 -44 -32 -44 -2 0 25 -13 12 -17 -17 -2 -12
-8 -32 -15 -44 -15 -30 -3 -41 20 -20 10 10 22 17 26 17 16 0 -25 -58 -70 -99
-47 -43 -49 -44 -52 -21 -3 14 3 29 14 37 25 18 9 29 -18 11 -36 -22 -80 -39
-73 -28 3 5 0 11 -7 11 -7 1 -19 2 -27 3 -24 2 -37 33 -23 56 8 14 9 20 1 20
-6 0 -19 10 -30 22 l-19 23 -20 -25 c-22 -29 -25 -51 -8 -68 9 -9 8 -12 -6
-12 -9 0 -15 4 -12 9 3 5 -9 11 -27 14 -43 7 -80 -28 -79 -74 0 -17 5 -36 10
-41 10 -10 56 5 67 21 11 19 22 12 28 -19 8 -37 41 -72 62 -64 12 5 11 -2 -6
-31 -16 -27 -19 -37 -8 -33 8 2 23 21 34 41 22 41 27 43 49 22 8 -8 21 -12 29
-9 10 4 16 -6 21 -35 7 -47 17 -51 40 -16 9 14 22 22 30 19 8 -3 17 -1 21 5
12 20 30 11 44 -20 14 -31 83 -89 107 -89 17 0 35 33 50 88 9 34 8 44 -3 53
-20 17 -16 45 9 61 20 14 24 13 38 -5 16 -19 16 -19 48 8 l32 27 0 -26 c0 -14
11 -49 25 -78 14 -28 25 -58 25 -65 0 -8 7 -24 15 -36 14 -22 14 -23 -19 -19
-26 3 -37 -1 -53 -22 -12 -14 -26 -26 -32 -26 -6 0 -11 -6 -11 -12 0 -10 -2
-10 -9 0 -6 10 -11 9 -22 -4 -12 -15 -11 -19 9 -32 l22 -14 -25 -30 c-14 -16
-25 -36 -25 -44 0 -17 22 -18 38 -2 9 9 12 4 12 -24 0 -19 -7 -41 -15 -48 -18
-15 -20 -41 -4 -57 8 -8 8 -16 0 -30 -10 -17 -10 -17 -11 0 0 9 -4 17 -10 17
-5 0 -10 -7 -10 -15 0 -12 -7 -14 -27 -9 -22 6 -25 4 -20 -10 4 -10 1 -16 -9
-16 -8 0 -17 -7 -20 -15 -4 -9 -14 -14 -23 -13 -10 2 -15 -3 -13 -14 2 -13 -4
-18 -18 -18 -13 0 -20 5 -18 12 3 7 -8 30 -24 52 -15 21 -25 43 -22 47 3 5 2
9 -3 8 -4 -1 -17 -1 -28 0 -16 1 -17 3 -5 10 8 6 18 7 22 5 4 -3 8 1 8 10 0 8
6 17 13 20 9 3 7 9 -6 19 -12 10 -17 29 -17 65 0 45 -3 51 -22 54 -19 2 -24
11 -28 52 -5 47 -6 49 -49 63 -43 14 -44 14 -82 -16 -39 -32 -59 -39 -59 -20
0 5 -4 7 -10 4 -5 -3 -10 -1 -10 4 0 6 6 11 12 11 7 0 2 7 -11 16 -21 15 -24
15 -52 -12 -37 -35 -39 -77 -5 -99 22 -15 27 -14 60 5 44 24 46 25 46 2 0 -22
-37 -55 -69 -62 -13 -3 -27 -15 -32 -27 -7 -20 -5 -22 17 -21 14 2 30 8 36 15
6 7 19 13 29 13 16 0 17 -3 7 -28 -7 -15 -22 -39 -35 -53 -25 -27 -43 -78 -43
-120 0 -24 4 -27 41 -31 68 -6 108 2 103 21 -3 9 1 5 8 -8 7 -14 23 -35 35
-47 33 -33 30 -48 -8 -40 -27 5 -30 4 -19 -9 15 -18 5 -35 -23 -35 -20 -1 -20
-2 -4 -11 9 -5 22 -7 27 -4 15 9 30 -4 23 -21 -3 -8 -12 -13 -20 -10 -8 3 -12
2 -9 -3 8 -13 -28 -20 -48 -9 -9 5 -16 15 -16 23 0 8 -4 16 -9 19 -5 4 -7 -3
-4 -14 4 -16 2 -19 -11 -14 -11 4 -26 -2 -41 -16 -25 -23 -50 -21 -27 2 7 7
12 18 12 25 0 23 -36 14 -61 -15 -13 -16 -36 -36 -50 -46 -25 -16 -27 -16 -32
3 -4 15 -1 18 12 13 14 -5 14 -4 2 11 -9 11 -28 17 -56 17 -23 0 -47 6 -52 13
-14 17 -22 67 -11 67 5 0 7 4 3 9 -3 5 7 19 22 31 16 12 34 31 41 43 13 22 13
22 8 -3 -4 -18 -1 -15 10 9 11 24 12 37 5 44 -19 19 -12 26 24 22 27 -4 35 -1
35 10 0 9 7 18 15 21 20 8 19 34 -1 34 -12 0 -15 6 -10 25 4 17 2 25 -7 25 -7
0 -28 -11 -47 -25 -33 -25 -67 -34 -55 -16 3 6 -2 14 -11 19 -25 14 -13 46 18
50 18 2 27 10 30 27 7 35 -6 52 -26 36 -9 -8 -16 -19 -16 -26 0 -15 -27 -28
-41 -20 -13 9 1 97 19 118 8 9 25 17 36 17 37 0 105 25 124 44 16 18 16 18 -3
11 -26 -11 -125 -19 -125 -10 0 4 20 27 45 52 47 46 49 57 15 66 -11 3 -18 1
-14 -4 3 -5 0 -9 -5 -9 -6 0 -11 7 -11 15 0 8 -4 15 -9 15 -5 0 -20 14 -32 31
l-22 31 22 29 c21 28 47 131 37 147 -9 16 10 31 44 35 19 3 43 8 53 12 20 8
24 30 3 22 -11 -5 -11 1 0 40 8 26 12 48 9 51 -2 3 2 14 10 26 20 28 19 46 -4
46 -14 0 -18 5 -14 20 6 22 -40 100 -58 100 -35 0 -63 -82 -37 -108 7 -7 9
-12 6 -12 -18 0 -38 36 -38 68 0 21 -4 53 -10 71 -5 19 -6 39 -1 45 4 6 11 24
15 40 4 16 16 41 27 54 25 32 24 52 -1 52 -25 0 -26 20 -1 51 20 26 39 129 23
129 -11 0 -3 48 9 56 15 9 10 32 -7 36 -15 3 -43 66 -44 96 0 6 9 12 19 12 11
0 23 5 27 11 4 8 -3 9 -25 4 -26 -5 -36 -2 -60 23 -25 24 -29 36 -27 70 3 33
-2 46 -20 63 -28 26 -29 34 -9 73 18 35 18 36 2 36 -48 0 -57 65 -11 76 23 6
64 52 64 72 0 5 -8 13 -17 17 -13 4 -26 -3 -45 -26 l-28 -33 0 29 c0 23 -3 27
-10 15 -5 -8 -10 -34 -10 -57 0 -24 -3 -43 -7 -43 -5 0 -21 24 -36 53 -16 28
-44 63 -62 77 -36 27 -38 39 -11 69 20 22 15 51 -9 51 -8 0 -20 11 -25 24 -15
41 -87 77 -114 58 -6 -4 -29 -14 -51 -21 -22 -7 -48 -21 -59 -30 -10 -9 -20
-15 -22 -13 -14 8 -44 0 -44 -13 0 -11 -12 -15 -48 -15 -26 0 -52 -4 -58 -9
-5 -5 -26 -14 -47 -21 -42 -13 -41 -30 3 -30 36 0 120 -18 139 -29 10 -7 11
-13 2 -30 -8 -14 -9 -27 -2 -40 9 -16 6 -21 -19 -31 -35 -14 -36 -18 -14 -49
23 -32 2 -71 -36 -71 -22 0 -30 -8 -46 -42 -10 -24 -25 -44 -31 -44 -7 -1 -16
-3 -20 -4 -5 -1 -12 -3 -18 -4 -71 -12 -107 -20 -146 -32 -32 -10 -54 -12 -71
-5 -25 9 -75 4 -83 -9 -3 -5 6 -28 20 -52 41 -71 37 -79 -70 -152 -17 -12 -18
-17 -6 -39 25 -47 13 -61 -59 -69 -83 -8 -140 -25 -140 -42 0 -8 35 -31 78
-52 68 -35 77 -42 74 -64 -5 -38 -39 -59 -94 -58 -27 1 -51 -2 -55 -6 -4 -3
-1 -26 5 -49 33 -112 33 -111 8 -132 -33 -28 -39 -56 -21 -99 14 -34 14 -38
-2 -61 -10 -13 -22 -25 -26 -25 -5 0 -22 -14 -38 -31 -16 -17 -36 -32 -45 -33
-8 -1 -20 -9 -25 -17 -5 -8 -9 -9 -9 -4 0 6 -9 -3 -20 -20 -22 -33 -27 -95 -8
-95 8 0 7 -5 -3 -15 -10 -10 -14 -27 -11 -45 4 -27 7 -30 43 -28 22 1 44 7 50
15 16 19 26 16 45 -12 14 -21 15 -31 5 -51 -6 -14 -16 -22 -21 -19 -15 9 -12
-31 4 -44 7 -6 11 -22 9 -35 -5 -25 12 -66 27 -66 5 0 22 -12 37 -27 25 -25
28 -35 30 -103 1 -41 4 -99 6 -127 3 -29 1 -53 -4 -53 -5 0 -9 -8 -9 -17 0
-23 -40 -103 -51 -103 -5 0 -9 -5 -9 -11 0 -5 -16 -31 -35 -56 -19 -25 -35
-54 -35 -64 0 -11 -6 -19 -12 -19 -7 0 -24 -16 -38 -34 -32 -44 -72 -53 -112
-25 -17 12 -27 27 -24 35 7 19 -6 17 -26 -4 -38 -39 -84 -51 -101 -24 -5 7
-12 10 -18 7 -5 -4 -9 -1 -9 6 0 6 -8 9 -20 6 -18 -5 -70 32 -70 49 0 4 -7 12
-15 18 -8 6 -16 28 -18 48 -2 21 -12 47 -22 58 -10 11 -19 31 -21 46 -1 15 -7
31 -13 37 -6 6 -11 19 -11 28 0 21 -28 75 -52 100 -10 10 -24 33 -32 51 -7 18
-22 42 -33 53 -11 12 -23 33 -27 48 -4 19 -19 32 -52 48 -38 17 -45 24 -40 42
3 11 1 26 -5 33 -11 13 1 47 28 81 16 20 111 53 151 53 13 0 51 38 52 51 0 4
-14 9 -32 13 -34 7 -68 32 -68 51 0 7 9 20 21 31 11 10 29 35 38 54 9 19 22
44 28 55 15 28 37 78 39 90 1 6 2 16 3 23 2 21 150 161 177 168 44 11 25 21
-52 27 -82 6 -110 21 -100 54 3 10 19 27 36 36 16 10 30 22 30 26 0 16 -33 22
-76 15 -42 -6 -43 -6 -51 27 -6 24 -19 39 -43 51 -44 23 -72 58 -59 75 16 18
-42 43 -101 43 -55 0 -132 36 -144 66 -8 21 32 70 67 83 23 8 27 15 22 31 -4
12 -4 39 0 61 6 32 15 45 46 66 36 24 58 57 45 70 -3 3 -49 6 -103 7 l-98 2 3
27 c2 21 -3 29 -23 37 -15 6 -37 10 -50 10 -18 0 -23 5 -22 21 2 27 42 49 136
74 41 11 76 25 78 31 2 5 -20 16 -49 24 -60 16 -68 16 -194 18 -88 2 -91 3
-90 25 2 27 -10 37 -49 37 -59 0 -129 -98 -118 -166 4 -25 2 -35 -11 -40 -9
-3 -16 -14 -16 -24 0 -11 -4 -22 -10 -25 -5 -3 -14 -23 -20 -45 -6 -22 -26
-55 -44 -74 -27 -29 -34 -46 -39 -93 -4 -39 -12 -63 -25 -73 -26 -21 -32 -44
-22 -81 10 -35 -14 -143 -37 -167 -7 -8 -18 -23 -24 -34 -9 -17 -8 -24 9 -37
17 -13 20 -26 18 -71 -1 -30 -13 -80 -25 -110 -25 -61 -42 -115 -46 -145 -12
-95 -27 -116 -67 -98 -19 8 -21 16 -19 69 1 32 7 64 12 70 4 6 8 24 7 40 -1
16 1 40 6 54 5 17 4 21 -2 11 -8 -11 -11 -9 -17 8 -7 24 -25 19 -25 -7 0 -26
-13 -40 -43 -47 -23 -6 -27 -4 -27 13 0 16 -9 21 -43 26 -40 6 -97 -5 -97 -19
0 -3 13 -11 29 -16 18 -6 28 -16 25 -23 -3 -8 2 -20 10 -28 13 -14 11 -19 -18
-47 -37 -36 -50 -38 -68 -13 -11 14 -31 17 -113 19 l-100 2 3 28 c1 15 14 37
28 49 24 20 25 21 22 170 l-3 149 -24 -53 c-19 -42 -26 -50 -37 -41 -20 17
-17 52 10 122 36 94 38 100 41 124 2 12 -4 24 -13 28 -16 6 -34 -13 -26 -27 3
-4 3 -8 -1 -8 -3 0 -10 10 -16 23 -7 18 -8 14 -4 -18 4 -35 3 -37 -7 -17 -6
12 -17 22 -25 22 -15 0 -18 16 -4 24 5 4 12 0 14 -6 3 -7 6 -1 6 15 1 15 -3
27 -7 27 -25 0 61 320 98 368 13 16 18 38 18 73 -2 69 17 85 32 28 6 -24 15
-57 20 -74 6 -16 14 -51 18 -77 8 -40 7 -47 -9 -51 -14 -4 -17 -12 -12 -38 2
-19 9 -36 14 -37 5 -2 7 -8 3 -13 -3 -5 0 -8 7 -7 6 2 16 -10 22 -27 13 -40
12 -40 36 -16 25 25 27 33 6 25 -8 -4 -15 -2 -15 4 0 6 6 12 13 15 9 3 9 7 0
19 -7 8 -10 18 -7 21 4 4 0 17 -8 29 -25 38 -3 49 68 32 32 -7 73 -11 90 -8
18 3 53 -2 86 -13 49 -17 60 -18 94 -5 22 7 50 14 64 15 16 2 25 9 25 19 0 10
8 23 17 30 9 7 22 26 27 41 7 18 25 34 51 46 35 16 38 20 25 31 -8 7 -15 18
-15 25 0 6 -13 22 -30 35 -36 28 -38 44 -6 65 32 21 41 66 14 73 -30 8 -21 64
12 72 33 8 42 50 10 50 -13 0 -20 5 -17 13 2 6 18 12 36 12 28 0 50 16 51 38
0 8 -6 9 -103 12 -37 1 -71 5 -74 9 -4 3 3 17 15 29 24 26 20 37 -13 37 -13 0
-32 13 -45 30 -13 17 -30 28 -37 26 -8 -3 -13 2 -13 14 0 11 5 20 10 20 23 0
8 30 -17 36 -16 3 -46 11 -68 16 -22 6 -50 10 -63 10 -12 0 -32 11 -45 24 -12
13 -32 24 -44 24 -25 0 -29 10 -13 26 14 14 2 44 -16 44 -8 0 -43 10 -77 21
-59 21 -137 31 -137 18z m590 -679 c0 -5 -8 -10 -17 -10 -15 0 -16 2 -3 10 19
12 20 12 20 0z m-768 -46 c-3 -18 -7 -22 -13 -13 -4 7 -3 19 3 26 15 18 16 17
10 -13z m-74 -79 c-6 -13 -15 -22 -19 -19 -5 3 -9 -3 -9 -13 -1 -10 -12 -31
-26 -48 -17 -20 -22 -23 -15 -8 6 12 11 31 11 43 0 11 11 32 25 45 32 33 48
33 33 0z m5122 0 c-13 -14 -26 -22 -29 -19 -3 3 5 14 19 24 34 27 38 25 10 -5z
m-4985 -47 c-3 -61 -4 -68 -14 -68 -5 0 -12 19 -16 42 -6 34 -4 44 11 55 10 7
19 13 19 13 1 0 1 -19 0 -42z m4965 -29 c0 -6 -4 -7 -10 -4 -5 3 -10 11 -10
16 0 6 5 7 10 4 6 -3 10 -11 10 -16z m-32 -49 c-13 -20 -38 -28 -38 -12 0 12
23 32 37 32 11 0 11 -4 1 -20z m-58 -21 c0 -6 -6 -6 -19 0 -10 6 -21 7 -25 4
-3 -3 -6 -2 -6 4 0 5 3 13 6 16 9 8 44 -11 44 -24z m25 -60 c11 -34 -46 -67
-59 -34 -5 15 -37 21 -49 8 -4 -3 0 -15 10 -25 9 -10 11 -18 5 -18 -7 0 -17 9
-24 20 -7 11 -18 20 -25 20 -22 0 -14 20 12 32 19 8 31 8 52 -1 22 -10 29 -9
42 3 20 21 28 20 36 -5z m-65 -115 c0 -20 4 -24 25 -21 13 1 28 7 32 12 4 4 2
5 -4 1 -24 -13 -13 13 11 29 27 18 77 17 83 -2 3 -6 -10 -19 -28 -29 -31 -16
-32 -17 -14 -30 10 -8 28 -14 38 -14 15 0 17 -3 9 -13 -12 -14 -5 -57 8 -57
14 0 21 -32 9 -46 -16 -20 -29 -17 -29 6 0 11 -5 20 -11 20 -6 0 -8 -9 -3 -22
6 -20 5 -21 -9 -10 -9 8 -20 11 -25 8 -6 -3 -15 1 -22 8 -9 12 -7 17 11 27 19
10 20 13 8 23 -9 6 -18 19 -22 29 -8 21 -26 22 -55 1 -18 -12 -23 -13 -21 -3
5 43 -2 68 -21 71 -20 3 -20 4 -3 25 21 26 33 21 33 -13z m-60 -6 c0 -7 -5
-20 -10 -28 -8 -12 -10 -9 -10 13 0 15 5 27 10 27 6 0 10 -6 10 -12z m312 -75
c-3 -16 -11 -32 -19 -36 -11 -7 -12 -12 -2 -23 10 -13 14 -12 30 2 39 35 17
-7 -23 -46 -34 -32 -44 -38 -46 -24 -2 9 2 20 9 25 9 5 10 12 3 21 -18 23 -13
54 12 73 13 10 24 24 24 32 0 8 4 12 9 9 4 -3 6 -18 3 -33z m58 27 c0 -5 -2
-10 -4 -10 -3 0 -8 5 -11 10 -3 6 -1 10 4 10 6 0 11 -4 11 -10z m152 -31 c-18
-18 -35 -30 -38 -27 -5 6 53 58 64 58 3 0 -9 -14 -26 -31z m-5292 -109 c0 -5
-2 -10 -4 -10 -3 0 -8 5 -11 10 -3 6 -1 10 4 10 6 0 11 -4 11 -10z m4952 -126
c9 -3 22 -19 28 -35 15 -34 25 -37 41 -8 8 15 18 20 35 16 13 -2 21 -1 19 4
-3 4 -1 10 4 13 5 4 13 -3 16 -15 11 -35 61 -102 99 -134 43 -35 45 -49 11
-71 -14 -9 -22 -20 -19 -25 3 -5 -4 -9 -15 -9 -12 0 -21 5 -21 10 0 6 -9 10
-20 10 -11 0 -20 6 -20 14 0 8 -9 18 -20 21 -24 8 -26 21 -3 29 14 6 13 10
-12 26 -25 17 -27 20 -11 26 40 15 -29 22 -148 14 -25 -2 -27 1 -29 51 -1 31
2 43 11 42 6 -2 11 0 11 5 -4 21 2 33 14 28 6 -3 20 -9 29 -12z m293 -124 c3
-6 -1 -7 -9 -4 -18 7 -21 14 -7 14 6 0 13 -4 16 -10z m-25 -10 c13 -8 13 -10
-2 -10 -9 0 -20 5 -23 10 -8 13 5 13 25 0z m-436 -40 c3 -22 11 -40 16 -40 6
0 10 -5 10 -11 0 -5 -5 -7 -12 -3 -8 5 -9 0 -4 -17 4 -13 8 -31 8 -41 -1 -22
33 -29 55 -12 23 17 33 17 33 1 0 -17 -95 -59 -123 -55 -19 3 -20 4 -4 20 9 9
17 20 17 23 0 12 -49 -4 -70 -23 -14 -11 -38 -17 -70 -17 -28 0 -50 2 -50 4 0
13 56 61 71 61 9 0 22 7 29 15 11 13 10 18 -6 30 -17 12 -20 11 -29 -8 -13
-30 -27 -38 -42 -26 -7 6 -16 8 -22 5 -15 -9 -22 24 -10 47 25 48 51 67 93 68
23 0 50 4 61 9 35 15 42 11 49 -30z m471 10 c-3 -5 -2 -10 3 -10 6 0 7 -10 4
-22 -6 -23 -6 -23 -12 2 -7 24 -4 40 6 40 3 0 2 -4 -1 -10z m-368 -56 c-3 -3
-12 -4 -19 -1 -8 3 -5 6 6 6 11 1 17 -2 13 -5z m253 -51 c0 -10 -4 -24 -9 -31
-7 -11 -10 -10 -15 3 -10 28 -7 45 9 45 8 0 15 -8 15 -17z m-298 -105 c-4 -13
-7 -39 -7 -58 0 -35 0 -35 53 -40 31 -3 57 -12 63 -20 7 -12 11 -12 17 -2 7
10 19 2 50 -28 46 -44 51 -55 23 -47 -25 6 -34 -35 -13 -57 14 -13 13 -15 -6
-13 -12 1 -22 4 -22 8 0 4 -31 7 -69 6 -38 -1 -69 2 -68 6 1 5 -6 14 -16 20
-16 10 -23 7 -46 -20 -15 -18 -33 -33 -39 -33 -11 0 -17 -25 -14 -62 1 -12 -5
-18 -18 -18 -11 0 -20 7 -20 16 0 10 -4 12 -12 7 -7 -4 -20 -8 -28 -8 -11 0
-16 -13 -17 -44 -3 -59 -15 -68 -47 -36 -24 24 -27 25 -55 11 -16 -9 -38 -27
-49 -40 -16 -21 -22 -23 -34 -13 -31 24 -27 42 13 61 21 10 48 29 59 41 l21
23 -33 31 c-18 17 -43 31 -55 31 -25 0 -29 10 -13 26 6 6 14 25 19 42 8 26 6
34 -7 41 -15 9 -14 12 8 38 14 15 32 32 40 37 8 5 28 22 43 38 31 30 47 36 47
15 0 -7 14 -26 30 -42 29 -28 30 -28 45 -9 8 10 18 29 21 42 7 25 5 25 37 13
22 -9 24 -7 19 12 -3 12 -1 19 3 15 5 -4 14 -3 21 3 8 6 21 9 29 5 9 -3 14 -2
10 3 -4 8 2 13 22 20 1 1 -1 -9 -5 -21z m295 -5 c-4 -3 1 -12 11 -20 15 -13
15 -13 -5 -3 -29 14 -38 30 -17 30 10 0 14 -3 11 -7z m-1502 -64 c-5 -15 -4
-19 4 -15 6 4 11 3 11 -3 0 -16 -22 -25 -30 -11 -9 15 -1 50 12 50 5 0 6 -10
3 -21z m655 -156 c0 -19 -53 -60 -71 -56 -10 3 -19 9 -19 13 0 7 26 22 42 24
4 1 13 7 20 14 13 13 28 16 28 5z m50 -43 c0 -5 -4 -10 -9 -10 -6 0 -13 5 -16
10 -3 6 1 10 9 10 9 0 16 -4 16 -10z m490 -56 c0 -8 -4 -12 -10 -9 -5 3 -10
10 -10 16 0 5 5 9 10 9 6 0 10 -7 10 -16z m35 -33 c-6 -5 -25 10 -25 20 0 5 6
4 14 -3 8 -7 12 -15 11 -17z m-45 0 c0 -5 -7 -11 -15 -15 -15 -5 -20 5 -8 17
9 10 23 9 23 -2z m84 -7 c9 -3 13 -10 10 -15 -8 -14 -21 -11 -28 6 -6 17 -4
18 18 9z m-764 -8 c0 -3 -4 -8 -10 -11 -5 -3 -10 -1 -10 4 0 6 5 11 10 11 6 0
10 -2 10 -4z m-4052 -13 c21 -5 23 -10 17 -40 -6 -35 -45 -108 -45 -86 0 8
-10 11 -30 7 -20 -5 -34 -1 -46 11 -16 15 -15 19 6 66 25 51 40 58 98 42z
m132 -67 c0 -45 0 -45 -42 -54 -24 -5 -46 -7 -50 -5 -4 2 3 26 14 53 18 44 24
50 49 50 28 0 29 -2 29 -44z m4797 38 c-3 -3 -12 -4 -19 -1 -8 3 -5 6 6 6 11
1 17 -2 13 -5z m-339 -144 c-13 -21 -28 -27 -28 -10 0 5 8 14 18 19 23 14 24
14 10 -9z m-184 -107 c4 -9 1 -20 -6 -25 -7 -4 -8 -8 -3 -8 6 0 21 7 33 16 12
8 22 10 22 5 0 -6 -4 -11 -8 -11 -5 0 -18 -9 -30 -20 -23 -21 -31 -83 -13 -95
5 -3 9 -20 9 -38 -1 -17 -3 -27 -5 -20 -2 7 -11 9 -20 6 -12 -5 -15 -2 -11 13
10 34 10 39 9 62 0 13 -5 21 -10 17 -13 -7 -43 24 -35 37 4 6 -2 8 -17 4 -22
-6 -23 -5 -5 6 10 7 30 25 44 41 29 31 37 33 46 10z m226 -127 c0 -2 -8 -10
-17 -17 -16 -13 -17 -12 -4 4 13 16 21 21 21 13z m-90 -46 c0 -5 -4 -10 -10
-10 -5 0 -10 5 -10 10 0 6 5 10 10 10 6 0 10 -4 10 -10z m-633 -22 c-3 -8 -6
-5 -6 6 -1 11 2 17 5 13 3 -3 4 -12 1 -19z m528 -8 c3 -5 1 -10 -4 -10 -6 0
-11 5 -11 10 0 6 2 10 4 10 3 0 8 -4 11 -10z m-525 -21 c0 8 3 12 6 9 7 -8
-14 -48 -25 -48 -6 0 -7 23 -2 50 1 3 6 -2 11 -10 8 -12 10 -12 10 -1z m340
-108 c0 -6 -5 -13 -10 -16 -15 -9 -43 3 -35 15 8 13 45 13 45 1z m50 0 c0 -18
-18 -21 -30 -6 -10 13 -9 15 9 15 11 0 21 -4 21 -9z m-115 -31 c3 -5 1 -10 -4
-10 -6 0 -11 5 -11 10 0 6 2 10 4 10 3 0 8 -4 11 -10z m75 0 c0 -5 -5 -10 -11
-10 -5 0 -7 5 -4 10 3 6 8 10 11 10 2 0 4 -4 4 -10z m-154 -30 c9 0 13 4 10 9
-4 5 3 7 15 4 21 -6 20 -6 -5 -22 -14 -8 -26 -19 -26 -23 0 -5 -5 -8 -11 -8
-6 0 -8 9 -4 20 4 12 2 20 -5 20 -6 0 -8 5 -4 12 6 9 9 9 12 0 2 -7 10 -12 18
-12z m-44 -29 c-1 -7 2 -20 7 -29 15 -29 23 -92 11 -92 -5 0 -10 11 -10 24 0
13 -7 29 -15 36 -8 7 -12 16 -9 21 3 5 -4 9 -16 9 -20 0 -21 1 -3 25 18 24 40
28 35 6z m-125 -46 c9 -25 -4 -29 -17 -6 -7 15 -7 21 0 21 6 0 13 -7 17 -15z
m-527 -195 c0 -5 -2 -10 -4 -10 -3 0 -8 5 -11 10 -3 6 -1 10 4 10 6 0 11 -4
11 -10z m290 6 c0 -3 -4 -8 -10 -11 -5 -3 -10 -1 -10 4 0 6 5 11 10 11 6 0 10
-2 10 -4z m-217 -63 c8 -7 -11 -33 -23 -33 -5 0 -6 9 -3 20 5 20 15 25 26 13z"/>
<path d="M5750 1940 c0 -6 4 -9 9 -6 5 4 12 1 14 -4 3 -6 4 -5 3 2 -3 15 -26
23 -26 8z"/>
<path d="M5130 921 c0 -25 6 -27 13 -6 4 8 2 17 -3 20 -6 4 -10 -3 -10 -14z"/>
<path d="M4751 3446 c-22 -35 -26 -47 -13 -44 15 3 62 -26 62 -39 0 -17 25
-17 43 2 20 19 11 52 -21 88 -33 35 -46 34 -71 -7z"/>
<path d="M747 3430 c-9 -24 -10 -36 -3 -39 6 -2 14 -8 17 -14 11 -16 21 51 11
70 -9 15 -12 13 -25 -17z"/>
<path d="M4247 3443 c-10 -9 -9 -23 2 -23 5 0 11 7 15 15 5 15 -5 20 -17 8z"/>
<path d="M5030 3433 c0 -5 9 -19 20 -33 21 -26 27 -12 10 21 -10 19 -30 26
-30 12z"/>
<path d="M5435 3430 c-3 -5 1 -10 9 -10 9 0 16 5 16 10 0 6 -4 10 -9 10 -6 0
-13 -4 -16 -10z"/>
<path d="M4970 3415 c-10 -12 -10 -15 3 -15 8 0 20 7 27 15 10 12 10 15 -3 15
-8 0 -20 -7 -27 -15z"/>
<path d="M4691 3361 c-10 -6 -10 -10 -1 -16 13 -8 24 -1 19 14 -3 6 -10 7 -18
2z"/>
<path d="M5846 3355 c4 -8 10 -12 15 -9 11 6 2 24 -11 24 -5 0 -7 -7 -4 -15z"/>
<path d="M696 3219 c-14 -17 -26 -38 -26 -47 1 -16 1 -16 10 -1 5 9 21 20 35
23 16 4 25 13 25 26 0 32 -17 32 -44 -1z"/>
<path d="M5422 3214 c-12 -8 -22 -22 -22 -30 0 -8 -7 -14 -16 -14 -11 0 -14
-8 -12 -27 3 -25 28 -47 28 -23 0 6 9 23 20 38 17 22 35 72 27 72 -2 0 -13 -7
-25 -16z"/>
<path d="M5446 3172 c-18 -21 -18 -21 15 -41 38 -24 45 -25 54 -11 3 5 19 7
35 3 26 -5 29 -3 25 18 -6 32 -15 38 -65 45 -37 5 -48 3 -64 -14z"/>
<path d="M656 3141 c-4 -7 -5 -15 -2 -18 9 -9 19 4 14 18 -4 11 -6 11 -12 0z"/>
<path d="M620 3105 c-7 -9 -11 -18 -8 -20 3 -3 11 1 18 10 7 9 11 18 8 20 -3
3 -11 -1 -18 -10z"/>
<path d="M652 3075 c0 -16 2 -22 5 -12 2 9 2 23 0 30 -3 6 -5 -1 -5 -18z"/>
<path d="M4275 3080 c-7 -12 2 -30 16 -30 12 0 12 27 0 35 -5 3 -12 1 -16 -5z"/>
<path d="M5152 3067 c-34 -36 -32 -107 4 -107 21 0 17 -18 -6 -30 -27 -14 -25
-28 5 -36 27 -7 34 -24 10 -24 -31 0 -45 -62 -22 -94 12 -16 16 -16 55 -3 40
14 43 14 57 -6 12 -18 18 -19 40 -9 14 6 25 20 25 31 0 10 7 24 15 31 17 14
21 35 5 25 -5 -3 -10 0 -10 9 0 8 -5 16 -11 18 -5 2 -7 11 -4 21 7 16 30 22
63 18 9 -2 12 4 7 17 -5 17 0 22 25 27 23 5 35 15 42 36 7 22 15 28 28 24 12
-4 19 1 23 14 7 28 -11 41 -58 41 -31 0 -46 -6 -68 -29 -15 -16 -27 -38 -27
-50 0 -15 -10 -23 -37 -30 -49 -14 -60 -14 -45 1 18 18 15 27 -12 38 -14 5
-26 20 -31 37 -14 57 -38 67 -73 30z"/>
<path d="M5287 3066 c-6 -14 2 -24 32 -41 11 -6 13 -4 8 8 -3 9 -2 16 2 14 9
-2 11 3 11 23 0 16 -47 12 -53 -4z"/>
<path d="M610 3049 c0 -6 -6 -9 -14 -6 -8 3 -18 -5 -25 -19 l-11 -25 30 18
c25 15 42 43 25 43 -3 0 -5 -5 -5 -11z"/>
<path d="M4363 3053 c-7 -2 -13 -9 -13 -14 0 -14 24 -11 46 6 19 14 19 14 -1
14 -11 0 -26 -3 -32 -6z"/>
<path d="M615 3010 c-3 -5 -2 -10 4 -10 5 0 13 5 16 10 3 6 2 10 -4 10 -5 0
-13 -4 -16 -10z"/>
<path d="M587 2993 c-4 -3 -7 -13 -7 -22 1 -13 3 -13 11 2 11 19 8 33 -4 20z"/>
<path d="M612 2959 c-19 -20 -28 -37 -25 -50 5 -19 6 -18 28 3 19 20 43 78 31
78 -2 0 -17 -14 -34 -31z"/>
<path d="M4616 2934 c-8 -20 -4 -25 11 -16 7 4 9 13 4 21 -6 10 -10 9 -15 -5z"/>
<path d="M4686 2931 c-4 -7 -5 -15 -2 -18 9 -9 19 4 14 18 -4 11 -6 11 -12 0z"/>
<path d="M4680 2881 c0 -13 29 -35 37 -28 7 8 -15 37 -28 37 -5 0 -9 -4 -9 -9z"/>
<path d="M4605 2859 c-12 -19 5 -23 22 -6 16 16 16 17 1 17 -9 0 -20 -5 -23
-11z"/>
<path d="M5000 2855 c-19 -22 -7 -41 13 -21 18 19 22 36 8 36 -5 0 -14 -7 -21
-15z"/>
<path d="M5725 2838 c-11 -6 -21 -11 -21 -12 -1 -1 -5 -12 -9 -25 -6 -21 -4
-23 13 -19 14 4 22 0 25 -13 3 -11 14 -19 27 -19 15 0 20 5 17 14 -3 8 1 20 9
26 18 16 18 30 0 30 -8 0 -16 7 -20 15 -6 18 -14 18 -41 3z"/>
<path d="M5417 2824 c-9 -10 3 -56 20 -75 16 -19 53 -14 53 8 0 7 7 25 16 39
22 33 10 42 -26 20 -27 -15 -31 -16 -36 -2 -6 17 -16 20 -27 10z"/>
<path d="M5030 2796 c0 -14 5 -28 10 -31 6 -4 10 7 10 24 0 17 -4 31 -10 31
-5 0 -10 -11 -10 -24z"/>
<path d="M4699 2793 c-1 -5 0 -20 1 -35 1 -18 -5 -30 -20 -38 -23 -12 -37 -7
-64 28 -29 36 -58 26 -73 -26 l-12 -43 27 2 c15 2 33 0 40 -5 7 -4 25 -5 41
-1 25 5 32 2 47 -24 10 -17 25 -31 34 -31 8 0 21 -9 28 -20 17 -28 52 -10 52
26 0 34 -27 84 -45 84 -19 0 -19 9 1 31 13 14 13 20 2 38 -12 20 -57 30 -59
14z"/>
<path d="M4393 2773 c-18 -7 -16 -23 2 -23 8 0 15 7 15 15 0 8 -1 15 -2 14 -2
0 -9 -3 -15 -6z"/>
<path d="M4290 2751 c0 -5 7 -17 16 -25 22 -23 36 -20 32 7 -3 22 -48 40 -48
18z"/>
<path d="M5317 2740 c9 -10 5 -17 -14 -34 -14 -13 -24 -29 -21 -37 3 -10 13
-5 37 19 35 34 36 55 5 60 -15 3 -16 1 -7 -8z"/>
<path d="M5350 2686 c0 -14 5 -26 10 -26 6 0 10 9 10 19 0 11 -4 23 -10 26 -6
4 -10 -5 -10 -19z"/>
<path d="M15 2640 c-10 -11 -16 -22 -14 -25 7 -6 49 24 49 36 0 15 -16 10 -35
-11z"/>
<path d="M4472 2509 c-7 -11 -11 -23 -9 -25 7 -7 29 24 25 36 -2 6 -9 1 -16
-11z"/>
<path d="M4535 2490 c-3 -5 -1 -10 4 -10 6 0 11 5 11 10 0 6 -2 10 -4 10 -3 0
-8 -4 -11 -10z"/>
<path d="M4425 2451 c-3 -5 -1 -12 5 -16 5 -3 10 1 10 9 0 18 -6 21 -15 7z"/>
<path d="M979 2378 c-1 -7 -1 -30 1 -51 1 -21 -4 -44 -11 -53 -10 -12 -9 -17
5 -27 12 -8 16 -22 14 -38 l-5 -24 -10 24 c-8 20 -11 22 -16 8 -4 -10 -2 -29
3 -43 8 -19 15 -24 30 -19 13 4 20 2 20 -7 1 -21 29 50 46 116 8 33 17 68 20
77 3 12 -7 21 -36 33 -49 19 -60 20 -61 4z"/>
<path d="M4500 2350 c0 -12 28 -25 36 -17 3 3 -4 10 -15 17 -15 7 -21 7 -21 0z"/>
<path d="M795 2324 c-13 -5 -10 -133 4 -147 8 -8 11 12 11 71 0 45 -1 82 -2
81 -2 0 -7 -2 -13 -5z"/>
<path d="M1255 2271 c3 -5 -2 -16 -10 -25 -15 -15 -17 -86 -2 -86 14 0 77 69
77 85 0 8 6 15 13 16 6 0 3 4 -8 9 -27 12 -78 12 -70 1z"/>
<path d="M4892 2268 c-14 -14 -16 -38 -3 -38 5 0 11 11 13 25 6 29 6 29 -10
13z"/>
<path d="M5016 2239 c3 -5 11 -9 19 -9 8 0 16 4 19 9 3 5 -5 9 -19 9 -14 0
-22 -4 -19 -9z"/>
<path d="M4917 2203 c-12 -12 -7 -63 6 -63 6 0 20 -20 31 -45 20 -51 52 -76
62 -50 6 14 8 14 24 0 19 -17 30 -11 30 17 0 15 -5 17 -25 12 -14 -3 -25 -2
-25 4 0 5 -8 9 -17 8 -15 -1 -18 8 -18 49 0 28 -4 56 -8 63 -9 13 -49 17 -60
5z"/>
<path d="M5205 2156 c-18 -15 -25 -28 -20 -37 6 -9 4 -11 -7 -6 -23 8 -30 -3
-13 -20 21 -21 19 -27 -15 -40 -16 -6 -30 -15 -30 -21 0 -11 45 -32 71 -32 15
0 18 -5 13 -24 -4 -18 -1 -25 17 -29 12 -3 31 0 43 9 27 19 36 18 36 -5 0 -17
4 -19 33 -10 30 8 67 41 67 60 0 5 -13 6 -30 3 -23 -5 -30 -3 -30 10 0 12 -7
14 -30 9 -23 -4 -30 -2 -28 8 2 10 -6 13 -24 12 -31 -2 -33 4 -18 59 6 22 19
39 30 43 11 4 20 13 20 21 0 23 -54 17 -85 -10z m29 -21 c-4 -8 -10 -15 -15
-15 -5 0 -9 7 -9 15 0 8 7 15 15 15 9 0 12 -6 9 -15z"/>
<path d="M5095 2140 c-4 -6 -1 -17 5 -26 10 -11 16 -12 26 -3 11 9 11 15 3 25
-14 17 -25 18 -34 4z"/>
<path d="M4786 2094 c-29 -28 -20 -42 15 -24 15 9 19 7 19 -5 0 -18 21 -16 27
2 4 12 -23 43 -37 43 -5 0 -16 -7 -24 -16z"/>
<path d="M4520 2064 c-26 -41 -17 -60 10 -24 17 22 27 60 16 60 -2 0 -14 -16
-26 -36z"/>
<path d="M985 2055 c-4 -22 -10 -44 -14 -50 -3 -5 -6 -14 -8 -20 -17 -72 -31
-107 -59 -142 -19 -23 -34 -45 -34 -49 0 -4 -7 -16 -17 -26 -21 -24 -15 -28
27 -19 31 6 36 11 48 56 7 28 27 99 43 158 17 60 28 114 26 120 -2 7 -8 -6
-12 -28z"/>
<path d="M4470 2043 c0 -10 5 -25 10 -33 8 -12 10 -9 10 12 0 15 -4 30 -10 33
-5 3 -10 -2 -10 -12z"/>
<path d="M4656 2023 c-3 -3 -1 -14 5 -25 6 -10 7 -28 4 -39 -5 -16 -12 -19
-34 -14 -22 5 -31 0 -49 -25 -13 -16 -18 -30 -13 -30 6 0 14 7 18 15 8 13 12
13 28 1 17 -13 18 -17 5 -55 -7 -23 -11 -43 -8 -46 11 -11 38 8 39 29 3 49 18
83 40 89 25 7 34 33 23 65 -9 24 -46 47 -58 35z"/>
<path d="M4727 1924 c-22 -25 -34 -54 -36 -85 -1 -16 67 -55 77 -44 3 3 0 21
-7 41 -11 30 -11 38 2 52 8 9 18 27 21 40 10 32 -27 30 -57 -4z"/>
<path d="M4370 1926 c0 -9 5 -16 10 -16 6 0 10 4 10 9 0 6 -4 13 -10 16 -5 3
-10 -1 -10 -9z"/>
<path d="M4660 1775 c-8 -9 -8 -15 -2 -15 12 0 26 19 19 26 -2 2 -10 -2 -17
-11z"/>
<path d="M4473 1773 c-14 -3 -27 -18 -38 -45 -9 -22 -14 -43 -11 -45 3 -3 18
-1 35 5 21 8 39 7 59 0 24 -10 32 -8 49 9 20 20 20 20 -7 32 -15 6 -35 9 -44
5 -11 -4 -16 -1 -16 10 0 9 5 16 10 16 6 0 10 5 10 10 0 10 -8 11 -47 3z"/>
<path d="M4621 1739 c-21 -8 -23 -14 -17 -48 5 -35 3 -41 -28 -64 l-33 -26
-20 21 c-29 29 -51 13 -23 -16 11 -13 23 -33 25 -46 7 -35 12 -35 50 -1 20 17
39 31 43 32 51 4 77 11 83 21 5 7 12 9 16 4 4 -4 1 -13 -7 -19 -8 -7 -14 -22
-12 -33 2 -15 -3 -23 -17 -27 -22 -6 -29 -37 -8 -37 6 0 29 16 50 35 42 39 52
43 43 19 -3 -9 1 -25 9 -37 8 -12 15 -16 15 -9 0 6 8 12 18 12 11 0 27 9 37
20 16 17 16 24 5 65 -8 29 -23 53 -40 65 -37 27 -49 25 -61 -7 l-11 -28 -12
31 c-15 33 -58 84 -72 83 -5 0 -20 -5 -33 -10z"/>
<path d="M4970 1720 c0 -6 10 -24 22 -41 l22 -29 -22 -16 c-27 -18 -30 -46 -4
-37 9 3 27 15 38 25 22 19 22 19 44 -16 24 -40 40 -46 40 -16 0 33 -22 70 -47
76 -14 4 -23 14 -23 26 0 14 -5 18 -15 14 -9 -3 -18 1 -21 9 -7 17 -34 21 -34
5z"/>
<path d="M2755 1600 c-8 -14 3 -30 21 -30 8 0 14 9 14 20 0 21 -24 28 -35 10z"/>
<path d="M4460 1570 c0 -5 4 -10 9 -10 6 0 13 5 16 10 3 6 -1 10 -9 10 -9 0
-16 -4 -16 -10z"/>
<path d="M4736 1511 c-4 -7 -5 -15 -2 -18 9 -9 19 4 14 18 -4 11 -6 11 -12 0z"/>
<path d="M4447 1503 c-14 -13 -6 -33 12 -33 25 0 38 20 20 31 -17 11 -24 11
-32 2z"/>
<path d="M4697 1466 c-12 -31 26 -40 60 -13 19 14 5 29 -18 17 -13 -7 -19 -7
-19 0 0 15 -17 12 -23 -4z"/>
<path d="M4460 1073 l0 -26 25 23 c14 13 25 25 25 27 0 2 -11 3 -25 3 -20 0
-25 -5 -25 -27z"/>
<path d="M4488 782 c-31 -18 -36 -32 -14 -32 16 0 46 26 46 41 0 12 0 12 -32
-9z"/>
</g>
</svg>
